HIERARCHY
ROOT Hips
{
    OFFSET 0.000000 0.000000 0.000000
    CHANNELS 6 Xposition Yposition Zposition Zrotation Xrotation Yrotation
    JOINT Spine
    {
        OFFSET -0.000000 7.979263 0.000000
        CHANNELS 3 Zrotation Xrotation Yrotation
        JOINT Spine1
        {
            OFFSET -0.000000 24.719021 0.000000
            CHANNELS 3 Zrotation Xrotation Yrotation
            JOINT Neck
            {
                OFFSET -0.000000 24.617504 2.237955
                CHANNELS 3 Zrotation Xrotation Yrotation
                JOINT Head
                {
                    OFFSET -0.000000 13.623132 -1.946162
                    CHANNELS 3 Zrotation Xrotation Yrotation
                    End Site
                    {
                        OFFSET -0.000000 24.327021 0.000000
                    }
                }
            }
            JOINT LeftShoulder
            {
                OFFSET 3.885773 23.018444 -0.302444
                CHANNELS 3 Zrotation Xrotation Yrotation
                JOINT LeftArm
                {
                    OFFSET 10.447750 0.000000 0.000000
                    CHANNELS 3 Zrotation Xrotation Yrotation
                    JOINT LeftForeArm
                    {
                        OFFSET 29.090096 0.000000 0.000000
                        CHANNELS 3 Zrotation Xrotation Yrotation
                        JOINT LeftHand
                        {
                            OFFSET 28.893339 0.000000 0.000000
                            CHANNELS 3 Zrotation Xrotation Yrotation
                            End Site
                            {
                                OFFSET 14.596213 0.000000 0.000000
                            }
                        }
                    }
                }
            }
            JOINT RightShoulder
            {
                OFFSET -3.864586 23.018444 -0.302444
                CHANNELS 3 Zrotation Xrotation Yrotation
                JOINT RightArm
                {
                    OFFSET -10.447750 0.000000 0.000000
                    CHANNELS 3 Zrotation Xrotation Yrotation
                    JOINT RightForeArm
                    {
                        OFFSET -29.090096 0.000000 0.000000
                        CHANNELS 3 Zrotation Xrotation Yrotation
                        JOINT RightHand
                        {
                            OFFSET -28.893339 0.000000 0.000000
                            CHANNELS 3 Zrotation Xrotation Yrotation
                            End Site
                            {
                                OFFSET -14.596213 0.000000 0.000000
                            }
                        }
                    }
                }
            }
        }
    }
    JOINT LeftUpLeg
    {
        OFFSET 9.730808 0.000000 0.000000
        CHANNELS 3 Zrotation Xrotation Yrotation
        JOINT LeftLeg
        {
            OFFSET -0.000000 -34.800129 0.000000
            CHANNELS 3 Zrotation Xrotation Yrotation
            JOINT LeftFoot
            {
                OFFSET -0.000000 -44.597416 0.000000
                CHANNELS 3 Zrotation Xrotation Yrotation
                JOINT LeftToeBase
                {
                    OFFSET -0.000000 -6.325025 14.596213
                    CHANNELS 3 Zrotation Xrotation Yrotation
                    End Site
                    {
                        OFFSET -0.000000 0.000000 3.892323
                    }
                }
            }
        }
    }
    JOINT RightUpLeg
    {
        OFFSET -9.730808 0.000000 0.000000
        CHANNELS 3 Zrotation Xrotation Yrotation
        JOINT RightLeg
        {
            OFFSET -0.000000 -34.800129 0.000000
            CHANNELS 3 Zrotation Xrotation Yrotation
            JOINT RightFoot
            {
                OFFSET -0.000000 -44.597416 0.000000
                CHANNELS 3 Zrotation Xrotation Yrotation
                JOINT RightToeBase
                {
                    OFFSET -0.000000 -6.325025 14.596213
                    CHANNELS 3 Zrotation Xrotation Yrotation
                    End Site
                    {
                        OFFSET -0.000000 0.000000 3.892323
                    }
                }
            }
        }
    }
}
MOTION
Frames:    7
Frame Time:    0.008333
12.249607    85.619415    51.945889    0.772395    0.449393    90.154495    0.188576    -9.641519    -0.333104    -0.655191    -0.952138    -0.354447    2.308629    25.817747    4.465240    -4.005441    -4.843227    4.125155    13.350128    -1.292470    -10.486774    -13.203067    5.259172    5.513190    1.830175    -0.744584    -1.528224    -1.624236    -0.747202    1.903130    -14.643319    1.164124    -2.700009    14.182124    3.508668    8.958385    -1.246081    0.080504    -0.719028    -5.011663    0.031974    0.927480    1.401139    6.114468    -1.706908    -0.915217    1.128995    1.249530    -1.882960    -5.077491    11.226884    0.000000    0.000000    0.000000    -2.709027    8.622684    0.042257    3.033276    -0.158396    -2.064794    -0.540486    -6.666133    -11.307681    0.000000    0.000000    0.000000    
12.247684    85.620605    51.943726    0.771183    0.447911    90.154945    0.201758    -9.640963    -0.333392    -0.678295    -0.957500    -0.356102    2.333057    25.828276    4.461214    -4.030957    -4.861840    4.118151    13.353740    -1.306888    -10.480881    -13.190572    5.261572    5.511252    1.819030    -0.734046    -1.524445    -1.633537    -0.736820    1.887601    -14.626338    1.184583    -2.724610    14.124599    3.384069    8.999854    -1.115911    0.123141    -0.713234    -5.118743    0.076511    0.899718    1.400230    6.111301    -1.725322    -0.915400    1.131682    1.248768    -1.884760    -5.070514    11.251496    0.000000    0.000000    0.000000    -2.710851    8.637964    0.104666    3.040303    -0.189277    -2.149250    -0.522300    -6.652115    -11.293106    0.000000    0.000000    0.000000    
12.246249    85.619606    51.943253    0.771296    0.447681    90.155289    0.202555    -9.634890    -0.347028    -0.671950    -0.981407    -0.369825    2.289006    25.866577    4.476925    -4.011085    -4.891567    4.133940    13.319364    -1.278308    -10.470161    -13.165555    5.267210    5.523902    1.828124    -0.735043    -1.527555    -1.659786    -0.737986    1.883489    -14.624883    1.188768    -2.688149    14.155051    3.495174    8.994034    -1.250360    0.057088    -0.699448    -5.042426    0.015104    0.809015    1.400422    6.108425    -1.709472    -0.911931    1.135438    1.233244    -1.885308    -5.087084    11.249636    0.000000    0.000000    0.000000    -2.707843    8.620349    0.039670    3.033077    -0.157945    -2.077949    -0.516470    -6.664180    -11.297233    0.000000    0.000000    0.000000    
12.248535    85.619270    51.943207    0.781834    0.442309    90.156815    0.225149    -9.642135    -0.359601    -0.703771    -0.951119    -0.384567    2.284782    25.839172    4.487457    -4.007195    -4.883413    4.144879    13.319364    -1.278308    -10.470161    -13.165555    5.267210    5.523902    1.828124    -0.735043    -1.527555    -1.659786    -0.737986    1.883489    -14.624883    1.188768    -2.688149    14.155051    3.495174    8.994034    -1.250360    0.057088    -0.699448    -5.042426    0.015104    0.809015    1.409676    6.124005    -1.709892    -0.917834    1.128781    1.240119    -1.894635    -5.091183    11.231123    0.000000    0.000000    0.000000    -2.711884    8.649195    0.120201    3.048174    -0.191213    -2.130732    -0.527241    -6.654226    -11.319031    0.000000    0.000000    0.000000    
12.245159    85.619087    51.942478    0.775980    0.440879    90.160782    0.238824    -9.645504    -0.372145    -0.723808    -0.956741    -0.398491    2.232153    25.843489    4.505144    -3.950842    -4.900510    4.168301    13.334273    -1.294028    -10.391829    -13.152467    5.325295    5.502784    1.828124    -0.735043    -1.527555    -1.659786    -0.737986    1.883489    -14.637245    1.156902    -2.663988    14.184456    3.497718    9.023645    -1.258949    0.053127    -0.709983    -5.071394    0.009151    0.814611    1.411812    6.109354    -1.713995    -0.919543    1.143482    1.202994    -1.886870    -5.106353    11.265911    0.000000    0.000000    0.000000    -2.703863    8.635953    0.120720    3.037412    -0.182289    -2.185305    -0.526342    -6.660199    -11.277717    0.000000    0.000000    0.000000    
12.244945    85.620674    51.941216    0.784930    0.442556    90.160225    0.241193    -9.644835    -0.382044    -0.727659    -0.941859    -0.408414    2.195023    25.817896    4.515939    -3.919479    -4.888772    4.181670    13.328290    -1.303813    -10.371265    -13.146638    5.348135    5.514046    1.808280    -0.723613    -1.527977    -1.630854    -0.726264    1.878510    -14.644758    1.141861    -2.653080    14.190810    3.493660    9.027560    -1.263652    0.043443    -0.705466    -5.096926    0.000475    0.798797    1.402833    6.116175    -1.704759    -0.910674    1.144002    1.240685    -1.877976    -5.092463    11.230837    0.000000    0.000000    0.000000    -2.705210    8.645723    0.124945    3.036180    -0.180320    -2.179948    -0.532672    -6.651771    -11.285020    0.000000    0.000000    0.000000    
12.243965    85.620483    51.938396    0.789440    0.441958    90.162521    0.258215    -9.640516    -0.382077    -0.758806    -0.942805    -0.410239    2.196235    25.835699    4.510642    -3.907049    -4.929060    4.177628    13.343916    -1.301380    -10.352722    -13.143441    5.346727    5.492159    1.808492    -0.730604    -1.521044    -1.632272    -0.733544    1.895839    -14.631406    1.135208    -2.657354    14.186644    3.486009    9.032116    -1.256720    0.037450    -0.709045    -5.119203    -0.004168    0.778513    1.404904    6.126109    -1.719672    -0.917618    1.135401    1.230618    -1.874531    -5.090503    11.256913    0.000000    0.000000    0.000000    -2.710864    8.651900    0.137039    3.038948    -0.186866    -2.192655    -0.501403    -6.655558    -11.272009    0.000000    0.000000    0.000000    
